# xmcd
#
# Track frame offsets: 
#        150
#        36923
#        77243
#        117371
#        150235
#        186250
#        220590
#        263651
#
# Disc length: 4259 seconds
#
# Revision: 0
# Processed by: cddbd v1.5.2PL0 Copyright (c) Steve Scherf et al.
# Submitted via: ExactAudioCopyFreeDBPlugin 1.0
#
DISCID=6110a108
DTITLE=Tino Gonzales Bluesband - tinogonzalesbluesband feat. tiffanyha
DTITLE=rp live at chabah
DYEAR=2015
DGENRE=Blues
TTITLE0=Tino Gonzales Bluesband feat. Tiffany Harp - I'll Play The Blu
TTITLE0=es For You
TTITLE1=Tino Gonzales Bluesband feat. Tiffany Harp - After Midnight
TTITLE2=Tino Gonzales Bluesband feat. Tiffany Harp - Still Got The Blu
TTITLE2=es
TTITLE3=Tino Gonzales Bluesband feat. Tiffany Harp - Let's Straighten 
TTITLE3=It Out
TTITLE4=Tino Gonzales Bluesband feat. Tiffany Harp - I'm Walking To My
TTITLE4=Baby
TTITLE5=Tino Gonzales Bluesband feat. Tiffany Harp - Got My Mojo Walki
TTITLE5=ng
TTITLE6=Tino Gonzales Bluesband feat. Tiffany Harp - Born Under A Bad 
TTITLE6=Sign
TTITLE7=Tino Gonzales Bluesband feat. Tiffany Harp - How You Play The 
TTITLE7=Blues
EXTD=
EXTT0=
EXTT1=
EXTT2=
EXTT3=
EXTT4=
EXTT5=
EXTT6=
EXTT7=
PLAYORDER=
